# xmcd
#
# Track frame offsets:
# 150
# 24683
# 44708
# 59233
# 78195
# 91728
# 101335
# 109880
# 158498
# 171238
#
# Disc length: 2464 seconds
#
# Revision: 0
# Processed by: cddbd v1.5.2PL0 Copyright (c) Steve Scherf et al.
# Submitted via: Axialis_AX_CDPlayer 2.6
#
DISCID=7b099e0a
DTITLE=Various Artist - Living Country Blues USA - The Introduction To Livi
DTITLE=ng \nCountry Blues CD 1
DYEAR=1900
DGENRE=
TTITLE0=Lonesome Road Blues - Guitar Frank
TTITLE1=The Train Is Comnin' - Memphis Piano Red
TTITLE2=What's The Matter Now - Flora Molton And The Truth Band
TTITLE3=Trouble Late Last Night - Lottie Murrell
TTITLE4=Sittin' On Top Of The World - Sam Chatmon
TTITLE5=Rock Me, Mama - James "Son" Thomas and Cleveland "Broomman" Jones
TTITLE6=Corinna, Corinna - Hammie Nixon
TTITLE7=Talkin' 'Bout Jesus - Cora Fluker and Ola Mae Bell
TTITLE8=So Hard To See - Walter Brown
TTITLE9=Bear Cat Mama Blues - Archie Edwards
EXTD=
EXTT0=
EXTT1=
EXTT2=
EXTT3=
EXTT4=
EXTT5=
EXTT6=
EXTT7=
EXTT8=
EXTT9=
PLAYORDER=
